<svg xmlns="http://www.w3.org/2000/svg"  viewBox="0 0 64 64" width="64px" height="64px"><linearGradient id="SVGID_1_" x1="20.43" x2="29.588" y1="20.594" y2="20.594" gradientUnits="userSpaceOnUse"><stop offset="0" stop-color="#6dc7ff"/><stop offset="1" stop-color="#e6abff"/></linearGradient><path fill="url(#SVGID_1_)" d="M29,24.6L29,24.6c-0.8,0.8-2,0.8-2.8,0L21,19.4c-0.8-0.8-0.8-2,0-2.8l0,0c0.8-0.8,2-0.8,2.8,0l5.2,5.2	C29.8,22.5,29.8,23.8,29,24.6z"/><linearGradient id="SVGID_2_" x1="38.962" x2="47.942" y1="38.995" y2="38.995" gradientUnits="userSpaceOnUse"><stop offset="0" stop-color="#6dc7ff"/><stop offset="1" stop-color="#e6abff"/></linearGradient><path fill="url(#SVGID_2_)" d="M47.4,42.9L47.4,42.9c-0.8,0.8-2,0.8-2.8,0l-5-5c-0.8-0.8-0.8-2,0-2.8l0,0c0.8-0.8,2-0.8,2.8,0l5,5	C48.1,40.9,48.1,42.1,47.4,42.9z"/><linearGradient id="SVGID_3_" x1="32" x2="32" y1="5.596" y2="51.515" gradientUnits="userSpaceOnUse"><stop offset="0" stop-color="#1a6dff"/><stop offset="1" stop-color="#c822ff"/></linearGradient><path fill="url(#SVGID_3_)" d="M50,9H14c-2.8,0-5,2.2-5,5v36c0,2.8,2.2,5,5,5h36c2.8,0,5-2.2,5-5V14C55,11.2,52.8,9,50,9z M53,50 c0,1.7-1.3,3-3,3H14c-1.7,0-3-1.3-3-3V14c0-1.7,1.3-3,3-3h36c1.7,0,3,1.3,3,3V50z"/><linearGradient id="SVGID_4_" x1="31.999" x2="31.999" y1="5.596" y2="51.515" gradientUnits="userSpaceOnUse"><stop offset="0" stop-color="#1a6dff"/><stop offset="1" stop-color="#c822ff"/></linearGradient><path fill="url(#SVGID_4_)" d="M48.1,39.4l-5-5c-0.2-0.2-0.3-0.3-0.5-0.4c-0.5-0.3-1.1-0.5-1.8-0.5c0,0,0,0,0,0c-0.8,0-1.6,0.3-2.2,0.9 l-3.3,3.3c-3.9-2-6.9-5.1-9-9l3.3-3.3c0.1-0.1,0.3-0.3,0.4-0.5c0.3-0.5,0.5-1.1,0.5-1.7c0-0.6-0.2-1.2-0.5-1.7 c-0.1-0.2-0.2-0.3-0.4-0.5l-5.1-5.1c-0.3-0.3-0.6-0.5-1-0.7c-0.2-0.1-0.4-0.1-0.6-0.2c-0.2,0-0.4-0.1-0.6-0.1c0,0,0,0,0,0 c-0.8,0-1.6,0.3-2.2,0.9l-3,3c-2.4,2.4-2.9,6.1-1.1,9c5,8.2,11.7,14.9,20,20c1.1,0.7,2.5,1.1,3.8,1.1c2,0,3.8-0.8,5.2-2.2l3-3 c1.1-1.1,1.2-2.7,0.4-3.9C48.4,39.7,48.2,39.5,48.1,39.4z M21.7,17.3c0.2-0.2,0.4-0.3,0.7-0.3c0.1,0,0.1,0,0.2,0 c0.2,0,0.4,0.1,0.5,0.3l5.2,5.2c0.2,0.2,0.3,0.4,0.3,0.7c0,0.3-0.1,0.5-0.3,0.7c-0.4,0.4-1,0.4-1.4,0l-5.2-5.2 C21.3,18.3,21.3,17.7,21.7,17.3z M43.6,45.4c-1,1-2.4,1.6-3.8,1.6c-1,0-1.9-0.3-2.8-0.8c-8-4.8-14.4-11.3-19.3-19.3 c-1.3-2.1-0.9-4.8,0.8-6.6l1.1-1.1c0.1,0.3,0.3,0.6,0.6,0.9l5.2,5.2c0.2,0.2,0.5,0.4,0.8,0.6l-1.4,1.4c-0.6,0.6-0.7,1.4-0.3,2.1 c2.3,4.4,5.6,7.8,10,10c0.7,0.4,1.6,0.2,2.1-0.3l1.5-1.5c0.1,0.4,0.4,0.7,0.7,1l5,5c0.3,0.3,0.6,0.5,1,0.6L43.6,45.4z M46.6,42.2 c-0.4,0.4-1,0.4-1.4,0l-5-5C40.1,37,40,36.8,40,36.5c0-0.3,0.1-0.5,0.3-0.7c0.2-0.2,0.5-0.3,0.7-0.3c0.1,0,0.3,0,0.4,0.1 c0,0,0,0,0,0c0.1,0,0.1,0.1,0.2,0.1l5.1,5.1c0.1,0.1,0.1,0.2,0.2,0.3C47,41.5,46.9,41.9,46.6,42.2z"/></svg>