<svg xmlns="http://www.w3.org/2000/svg"  viewBox="0 0 100 100" width="100px" height="100px"><path fill="#3a83c1" d="M93.261,81.186L93.261,81.186c-0.539,0.008-0.99-0.374-1.11-0.9c-1.363-5.979-5.97-9.659-9.57-11.306	c7.778,8.023,8.022,18.034,7.87,21.269c-0.028,0.584-0.517,1.037-1.101,1.031l0,0c-0.548-0.006-0.999-0.419-1.067-0.963	C87.122,81.094,82.91,72.804,77.39,69.73c-5.05-2.82-8.44-3.02-12.03-3.22c-1.92-0.12-3.9-0.23-6.21-0.73	c-5.4-1.18-10.99-5.81-11.29-13.5c-0.3-7.85,4.81-11.78,6.83-13.02c-0.01,0-1.72-0.52-2.35-0.55c-0.52-0.02-1.04-0.02-1.57-0.02	c-19.12,0-38.03,11.13-38.22,11.24c-0.16,0.09-0.34,0.14-0.51,0.14c-0.32,0-0.64-0.15-0.83-0.44c-0.3-0.44-0.2-1.03,0.22-1.35	c0.18-0.14,18.35-13.38,39.58-13.91c0-0.02,0-0.01,0-0.04C46.77,33.64,41.91,33,36.46,33c-16.11,0-32.09,3.93-32.25,3.97	C4.13,36.99,4.05,37,3.97,37c-0.42,0-0.81-0.27-0.95-0.68c-0.16-0.5,0.09-1.04,0.57-1.24c0.14-0.06,14.67-5.99,33.47-5.99	c4.65,0,9.55,0.41,13.98,1.13c-6.715-4.261-23.019-7.114-40.75-7.236c-0.553-0.004-1.008-0.438-1.03-0.99l0,0	c-0.022-0.559,0.408-1.04,0.966-1.081c3.941-0.289,8.248-0.433,11.833-0.433c24.12,0,32.27,6.35,32.61,6.62L55,27.37l0.03,0.42	c0.58,7.12,2.26,8.38,3.38,9.21c0.17,0.12,0.33,0.24,0.48,0.36c0.5,0.42,2.05,0.46,3.43,0.49c1.14,0.02,2.32,0.05,3.46,0.24	c1.68,0.29,3.15,0.86,4.12,1.29l0.35-0.43c0.325-0.4,0.795-0.655,1.308-0.711l1.652-0.179c-0.83-0.6-1.68-1.16-2.48-1.68	c-2.87-1.84-5.27-3.09-5.31-3.12c-0.45-0.23-0.66-0.76-0.48-1.23c0.14-0.4,0.52-0.66,0.94-0.66c0.07,0,0.15,0.01,0.22,0.03	c0.3,0.07,7.39,1.81,15.86,10.23c0.28,0.28,0.37,0.71,0.22,1.09c-0.16,0.37-0.52,0.62-0.93,0.62h-1.69	c-0.31,0-0.861-0.127-1.051-0.357c0,0,0,0,0.571,0.677c0.347,0.411,0.74,0.7,1,0.88c0.22-0.03,0.5-0.06,0.8-0.06	c1.41,0,1.95,0.7,2.15,1.12c0.51,1.08,1.08,1.76,1.5,2.27c0.18,0.21,0.33,0.39,0.43,0.54c0.29,0.45,0.35,0.93,0.28,1.36	c0.66,0.51,2.4,1.28,3.87,1.59l0.878,1.464L85.73,55.63l-0.57-0.64c-2.41-2.68-4.53-3.58-5.67-4.07c-0.35-0.14-0.63-0.26-0.85-0.4	c-0.89-0.54-1.2-1.88-1.32-2.79c-1.96-1.06-9.77-5.09-14.25-5.09c-7.39,0-10.18,4.19-10.33,7.79c-0.09,2.27,0.63,5.56,2.94,7.97	c2.12,2.2,5.2,3.32,9.17,3.32c11.84,0,20.4,2.75,25.44,8.16c3.579,3.844,4.061,8.204,4.07,10.197	C94.363,80.685,93.869,81.177,93.261,81.186z"/><path fill="#1f212b" d="M91.02,69.2c-5.24-5.63-14.04-8.48-26.17-8.48c-3.68,0-6.53-1.01-8.44-3.01	c-2.1-2.19-2.75-5.27-2.67-7.24c0.13-3.15,2.65-6.83,9.33-6.83c3.65,0,10.2,3.07,13.34,4.73c0.2,1.1,0.66,2.36,1.71,3	c0.28,0.18,0.59,0.31,0.98,0.47c1.14,0.49,3.05,1.3,5.31,3.82c0.39,0.43,0.94,0.66,1.49,0.66c0.38,0,0.76-0.11,1.1-0.33l3.01-1.98	c0.68-0.45,1.02-1.26,0.87-2.05c-0.16-0.79-0.77-1.42-1.56-1.58c-1.04-0.22-2.35-0.73-3.06-1.14c-0.03-0.46-0.17-0.93-0.47-1.38	c-0.14-0.21-0.31-0.41-0.49-0.64c-0.39-0.46-0.91-1.09-1.36-2.05c-0.16-0.33-0.56-0.95-1.39-1.34c0.23-0.2,0.43-0.44,0.55-0.73	c0.31-0.75,0.14-1.61-0.44-2.18C74,32.3,66.64,30.5,66.33,30.43c-0.15-0.04-0.3-0.06-0.46-0.06c-0.82,0-1.57,0.51-1.87,1.31	c-0.35,0.94,0.06,2,0.95,2.47c0.05,0.02,2.76,1.44,5.83,3.46h-0.06c-0.46,0.03-0.88,0.23-1.2,0.52c-0.97-0.38-2.21-0.79-3.57-1.02	c-1.21-0.21-2.49-0.24-3.61-0.26c-0.98-0.02-2.47-0.06-2.85-0.28c-0.13-0.11-0.3-0.24-0.48-0.38c-0.97-0.72-2.44-1.81-2.98-8.48	c-0.04-0.54-0.31-1.05-0.74-1.39c-0.34-0.28-8.76-6.84-33.23-6.84c-3.91,0-8.09,0.17-12.42,0.51c-1.07,0.08-1.88,1-1.84,2.07	s0.92,1.92,2,1.92c13.91,0.02,26.67,1.71,34.82,4.44c-2.49-0.21-5.01-0.33-7.56-0.33c-19,0-33.26,5.82-33.85,6.06	c-0.97,0.41-1.46,1.48-1.14,2.48C2.35,37.46,3.13,38,3.97,38c0.16,0,0.32-0.02,0.49-0.06C4.61,37.9,20.48,34,36.46,34	c2.06,0,4.04,0.07,5.92,0.19c-17.69,2.82-30.92,12.8-31.56,13.29c-0.84,0.65-1.03,1.83-0.44,2.71c0.39,0.57,1.02,0.88,1.66,0.88	c0.35,0,0.7-0.09,1.02-0.28c0.19-0.11,18.89-11.1,37.71-11.1c0.52,0,1.03,0,1.54,0.02h0.06c-2.49,2.08-5.76,6.08-5.51,12.6	c0.32,8.23,6.3,13.18,12.08,14.44c2.38,0.52,4.41,0.64,6.37,0.75c3.61,0.22,6.74,0.4,11.6,3.11c5.43,3.02,9.54,10.98,10.48,20.26	c0.1,1.01,0.95,1.79,1.97,1.8c0.01,0,0.01,0,0.02,0c1.01,0,1.86-0.75,1.99-1.75c0.06-0.49,1.06-9.32-4.41-17.99	c2.05,1.85,3.8,4.42,4.38,7.94c0.16,0.96,1,1.67,1.97,1.67h0.03c0.99-0.02,1.82-0.75,1.96-1.73C95.33,80.56,96.07,74.62,91.02,69.2z M65.9,32.38c0.48,0.12,7.29,1.94,15.35,9.96h-1.69C75.62,37.51,66.47,32.68,65.9,32.38z M36.46,32c-16.43,0-32.49,4-32.49,4	s14.27-5.91,33.09-5.91c4.34,0,8.91,0.31,13.61,1.08c0,0.01,0.01,0.01,0.02,0.02l0.52,2.17C46.56,32.38,41.5,32,36.46,32z M50.77,37.69c-19.31,0-38.13,11.03-38.72,11.37c0.55-0.41,18.09-13.61,39.41-13.61h0.08l0.84,2.26	C51.84,37.69,51.31,37.69,50.77,37.69z M93.32,80.54c-1.95-11.73-15.2-14.11-15.2-14.11C91.21,76,89.38,90.67,89.38,90.67	c-0.89-8.82-4.81-18.08-11.5-21.81c-7.96-4.44-11.94-2.63-18.52-4.06c-4.77-1.04-10.21-5.08-10.5-12.56	c-0.35-9.01,7.05-12.52,7.05-12.52l-3.39-9.69C45.98,25.12,28.7,22,9.8,21.98c4.49-0.34,8.57-0.5,12.26-0.5	c24.05,0,31.98,6.4,31.98,6.4c0.68,8.46,2.94,9.2,4.21,10.25c1.26,1.06,4.62,0.48,7.36,0.95c2.74,0.47,4.94,1.74,4.94,1.74	l0.32-1.21c0.88,2.07,3,2.78,3,2.78v-1.63c0.79,1.9,3,3.21,3,3.21v-1.56c0,0,0.74,1.13,1.47,1.93c0.74,0.81,1.52,1.26,1.52,1.26	s0.49-0.12,1.02-0.12c0.5,0,1.04,0.11,1.25,0.54c0.76,1.63,1.68,2.48,2,2.95c0.31,0.47,0,1.03,0,1.03c0.52,0.98,3.26,2.02,4.78,2.34	l-3.01,1.98c-3.22-3.58-5.96-4.17-6.73-4.65c-0.78-0.48-0.9-2.56-0.9-2.56s-9.74-5.47-15.2-5.47c-8.05,0-11.17,4.82-11.33,8.75	c-0.16,3.92,1.99,12.33,13.11,12.33c12.81,0,20.47,3.3,24.71,7.84C94.02,75.35,93.32,80.54,93.32,80.54z"/><path fill="#1f212b" d="M81.912,47.93l1.2,1.447c0,0-1.028-0.416-1.2-0.72C81.822,48.499,81.912,47.93,81.912,47.93z"/></svg>